<svg preserveAspectRatio="none" width="100%" height="100%" overflow="visible" style="display: block;" viewBox="0 0 20 11" fill="none" xmlns="http://www.w3.org/2000/svg">
<g id="Battery / Light">
<g id="Battery / Light (Background)">
</g>
<path id="Subtract" d="M15.3624 9.98557H9.11532L9.75977 9.21746H15.3624C15.7698 9.21746 16.1606 9.0556 16.4487 8.7675C16.7368 8.4794 16.8986 8.08866 16.8986 7.68122V3.07253C16.8986 2.66509 16.7368 2.27435 16.4487 1.98625C16.1606 1.69815 15.7698 1.5363 15.3624 1.5363H11.5218C11.6128 1.28993 11.6238 1.02117 11.5533 0.76818L15.3624 0.76818C15.9736 0.76818 16.5597 1.01096 16.9918 1.44311C17.424 1.87526 17.6668 2.46138 17.6668 3.07253V7.68122C17.6668 8.29238 17.424 8.8785 16.9918 9.31064C16.5597 9.74279 15.9736 9.98557 15.3624 9.98557ZM6.87472 9.98557H2.30443C1.69328 9.98557 1.10716 9.74279 0.675012 9.31064C0.242863 8.8785 8.41864e-05 8.29238 8.41864e-05 7.68122L8.41864e-05 3.07253C8.41864e-05 2.46138 0.242863 1.87526 0.675012 1.44311C1.10716 1.01096 1.69328 0.76818 2.30443 0.76818L9.31887 0.76818L8.67288 1.5363H2.30443C1.897 1.5363 1.50625 1.69815 1.21815 1.98625C0.930053 2.27435 0.7682 2.66509 0.7682 3.07253V7.68122C0.7682 8.08866 0.930053 8.4794 1.21815 8.7675C1.50625 9.0556 1.897 9.21746 2.30443 9.21746H6.90545C6.81517 9.46396 6.80416 9.73251 6.87395 9.98557H6.87472Z" fill="var(--fill-0, #EBEBF5)" fill-opacity="0.3"/>
<path id="Rectangle 23" d="M18.4348 3.84063C18.6385 3.84063 18.8339 3.92156 18.9779 4.06561C19.122 4.20966 19.2029 4.40503 19.2029 4.60875V6.14498C19.2029 6.3487 19.122 6.54407 18.9779 6.68812C18.8339 6.83217 18.6385 6.91309 18.4348 6.91309V6.91309V3.84063Z" fill="var(--fill-0, white)" fill-opacity="0.6"/>
<path id="Rectangle 21 (Stroke)" d="M15.3624 9.98557H2.30443C1.69328 9.98557 1.10716 9.74279 0.675012 9.31064C0.242863 8.8785 8.41864e-05 8.29238 8.41864e-05 7.68122L8.41864e-05 3.07253C8.41864e-05 2.46138 0.242863 1.87526 0.675012 1.44311C1.10716 1.01096 1.69328 0.76818 2.30443 0.76818L15.3624 0.76818C15.9736 0.76818 16.5597 1.01096 16.9918 1.44311C17.424 1.87526 17.6668 2.46138 17.6668 3.07253V7.68122C17.6668 8.29238 17.424 8.8785 16.9918 9.31064C16.5597 9.74279 15.9736 9.98557 15.3624 9.98557ZM2.30443 1.5363C1.897 1.5363 1.50625 1.69815 1.21815 1.98625C0.930053 2.27435 0.7682 2.66509 0.7682 3.07253V7.68122C0.7682 8.08866 0.930053 8.4794 1.21815 8.7675C1.50625 9.0556 1.897 9.21746 2.30443 9.21746H15.3624C15.7698 9.21746 16.1606 9.0556 16.4487 8.7675C16.7368 8.4794 16.8986 8.08866 16.8986 7.68122V3.07253C16.8986 2.66509 16.7368 2.27435 16.4487 1.98625C16.1606 1.69815 15.7698 1.5363 15.3624 1.5363H2.30443Z" fill="var(--fill-0, white)" fill-opacity="0.6"/>
<path id="Rectangle 20" d="M15.3624 2.30396H2.30443C1.88021 2.30396 1.53631 2.64786 1.53631 3.07208V7.68077C1.53631 8.10499 1.88021 8.44889 2.30443 8.44889H15.3624C15.7866 8.44889 16.1305 8.10499 16.1305 7.68077V3.07208C16.1305 2.64786 15.7866 2.30396 15.3624 2.30396Z" fill="var(--fill-0, #52617A)"/>
</g>
</svg>
