<svg preserveAspectRatio="none" width="100%" height="100%" overflow="visible" style="display: block;" viewBox="0 0 16 11" fill="none" xmlns="http://www.w3.org/2000/svg">
<g id="Network Signal /&#194;&#160;Light">
<g id="Network Signal /&#194;&#160;Light (Background)">
</g>
<path id="Path" d="M9.98569 3.0723C10.1894 3.0723 10.3848 3.15322 10.5288 3.29727C10.6729 3.44132 10.7538 3.63669 10.7538 3.84041V8.44911C10.7538 8.65282 10.6729 8.8482 10.5288 8.99225C10.3848 9.1363 10.1894 9.21722 9.98569 9.21722H9.21758C9.01386 9.21722 8.81849 9.1363 8.67444 8.99225C8.53039 8.8482 8.44946 8.65282 8.44946 8.44911V3.84041C8.44946 3.63669 8.53039 3.44132 8.67444 3.29727C8.81849 3.15322 9.01386 3.0723 9.21758 3.0723H9.98569Z" fill="var(--fill-0, #E0E4EB)"/>
<path id="Path_2" d="M6.52908 4.60897C6.73279 4.60897 6.92817 4.68989 7.07222 4.83394C7.21627 4.97799 7.29719 5.17337 7.29719 5.37708V8.44955C7.29719 8.65326 7.21627 8.84864 7.07222 8.99269C6.92817 9.13674 6.73279 9.21766 6.52908 9.21766H5.76096C5.55724 9.21766 5.36187 9.13674 5.21782 8.99269C5.07377 8.84864 4.99284 8.65326 4.99284 8.44955V5.37708C4.99284 5.17337 5.07377 4.97799 5.21782 4.83394C5.36187 4.68989 5.55724 4.60897 5.76096 4.60897H6.52908Z" fill="var(--fill-0, #E0E4EB)"/>
<path id="Path_3" d="M3.07246 5.76102C3.27617 5.76102 3.47155 5.84195 3.6156 5.986C3.75965 6.13005 3.84057 6.32542 3.84057 6.52914V8.44943C3.84057 8.65315 3.75965 8.84852 3.6156 8.99257C3.47155 9.13662 3.27617 9.21755 3.07246 9.21755H2.30434C2.10062 9.21755 1.90525 9.13662 1.7612 8.99257C1.61715 8.84852 1.53623 8.65315 1.53623 8.44943V6.52914C1.53623 6.32542 1.61715 6.13005 1.7612 5.986C1.90525 5.84195 2.10062 5.76102 2.30434 5.76102H3.07246Z" fill="var(--fill-0, #E0E4EB)"/>
<path id="Empty Bar" d="M13.4419 1.53652C13.6456 1.53652 13.841 1.61744 13.985 1.76149C14.1291 1.90554 14.21 2.10091 14.21 2.30463V8.44956C14.21 8.65328 14.1291 8.84865 13.985 8.9927C13.841 9.13675 13.6456 9.21768 13.4419 9.21768H12.6738C12.47 9.21768 12.2747 9.13675 12.1306 8.9927C11.9866 8.84865 11.9056 8.65328 11.9056 8.44956V2.30463C11.9056 2.10091 11.9866 1.90554 12.1306 1.76149C12.2747 1.61744 12.47 1.53652 12.6738 1.53652H13.4419Z" fill="var(--fill-0, white)" fill-opacity="0.3"/>
<path id="Path_4" d="M9.98569 3.0723C10.1894 3.0723 10.3848 3.15322 10.5288 3.29727C10.6729 3.44132 10.7538 3.63669 10.7538 3.84041V8.44911C10.7538 8.65282 10.6729 8.8482 10.5288 8.99225C10.3848 9.1363 10.1894 9.21722 9.98569 9.21722H9.21758C9.01386 9.21722 8.81849 9.1363 8.67444 8.99225C8.53039 8.8482 8.44946 8.65282 8.44946 8.44911V3.84041C8.44946 3.63669 8.53039 3.44132 8.67444 3.29727C8.81849 3.15322 9.01386 3.0723 9.21758 3.0723H9.98569Z" fill="var(--fill-0, #E0E4EB)"/>
<path id="Path_5" d="M6.52908 4.60897C6.73279 4.60897 6.92817 4.68989 7.07222 4.83394C7.21627 4.97799 7.29719 5.17337 7.29719 5.37708V8.44955C7.29719 8.65326 7.21627 8.84864 7.07222 8.99269C6.92817 9.13674 6.73279 9.21766 6.52908 9.21766H5.76096C5.55724 9.21766 5.36187 9.13674 5.21782 8.99269C5.07377 8.84864 4.99284 8.65326 4.99284 8.44955V5.37708C4.99284 5.17337 5.07377 4.97799 5.21782 4.83394C5.36187 4.68989 5.55724 4.60897 5.76096 4.60897H6.52908Z" fill="var(--fill-0, #E0E4EB)"/>
<path id="Path_6" d="M3.07246 5.76102C3.27617 5.76102 3.47155 5.84195 3.6156 5.986C3.75965 6.13005 3.84057 6.32542 3.84057 6.52914V8.44943C3.84057 8.65315 3.75965 8.84852 3.6156 8.99257C3.47155 9.13662 3.27617 9.21755 3.07246 9.21755H2.30434C2.10062 9.21755 1.90525 9.13662 1.7612 8.99257C1.61715 8.84852 1.53623 8.65315 1.53623 8.44943V6.52914C1.53623 6.32542 1.61715 6.13005 1.7612 5.986C1.90525 5.84195 2.10062 5.76102 2.30434 5.76102H3.07246Z" fill="var(--fill-0, #E0E4EB)"/>
</g>
</svg>
