<svg width="393" height="22" viewBox="0 0 393 22" fill="none" xmlns="http://www.w3.org/2000/svg">
<rect width="393" height="22" fill="#FFF8E4"/>
<path d="M337.985 8.08594C338.189 8.08594 338.385 8.16686 338.529 8.31091C338.673 8.45496 338.754 8.65034 338.754 8.85405V13.4627C338.754 13.6665 338.673 13.8618 338.529 14.0059C338.385 14.1499 338.189 14.2309 337.985 14.2309H337.217C337.014 14.2309 336.818 14.1499 336.674 14.0059C336.53 13.8618 336.449 13.6665 336.449 13.4627V8.85405C336.449 8.65034 336.53 8.45496 336.674 8.31091C336.818 8.16686 337.014 8.08594 337.217 8.08594H337.985Z" fill="#52617A"/>
<path d="M334.529 9.62305C334.733 9.62305 334.928 9.70397 335.072 9.84802C335.216 9.99207 335.297 10.1874 335.297 10.3912V13.4636C335.297 13.6673 335.216 13.8627 335.072 14.0068C334.928 14.1508 334.733 14.2317 334.529 14.2317H333.761C333.557 14.2317 333.362 14.1508 333.218 14.0068C333.074 13.8627 332.993 13.6673 332.993 13.4636V10.3912C332.993 10.1874 333.074 9.99207 333.218 9.84802C333.362 9.70397 333.557 9.62305 333.761 9.62305H334.529Z" fill="#52617A"/>
<path d="M331.072 10.7754C331.276 10.7754 331.471 10.8563 331.616 11.0004C331.76 11.1444 331.84 11.3398 331.84 11.5435V13.4638C331.84 13.6675 331.76 13.8629 331.616 14.0069C331.471 14.151 331.276 14.2319 331.072 14.2319H330.304C330.101 14.2319 329.905 14.151 329.761 14.0069C329.617 13.8629 329.536 13.6675 329.536 13.4638V11.5435C329.536 11.3398 329.617 11.1444 329.761 11.0004C329.905 10.8563 330.101 10.7754 330.304 10.7754H331.072Z" fill="#52617A"/>
<path d="M341.442 6.55078C341.646 6.55078 341.841 6.63171 341.985 6.77576C342.129 6.91981 342.21 7.11518 342.21 7.3189V13.4638C342.21 13.6675 342.129 13.8629 341.985 14.007C341.841 14.151 341.646 14.2319 341.442 14.2319H340.674C340.47 14.2319 340.275 14.151 340.131 14.007C339.987 13.8629 339.906 13.6675 339.906 13.4638V7.3189C339.906 7.11518 339.987 6.91981 340.131 6.77576C340.275 6.63171 340.47 6.55078 340.674 6.55078H341.442Z" fill="white" fill-opacity="0.3"/>
<path d="M337.985 8.08594C338.189 8.08594 338.385 8.16686 338.529 8.31091C338.673 8.45496 338.754 8.65034 338.754 8.85405V13.4627C338.754 13.6665 338.673 13.8618 338.529 14.0059C338.385 14.1499 338.189 14.2309 337.985 14.2309H337.217C337.014 14.2309 336.818 14.1499 336.674 14.0059C336.53 13.8618 336.449 13.6665 336.449 13.4627V8.85405C336.449 8.65034 336.53 8.45496 336.674 8.31091C336.818 8.16686 337.014 8.08594 337.217 8.08594H337.985Z" fill="#52617A"/>
<path d="M334.529 9.62305C334.733 9.62305 334.928 9.70397 335.072 9.84802C335.216 9.99207 335.297 10.1874 335.297 10.3912V13.4636C335.297 13.6673 335.216 13.8627 335.072 14.0068C334.928 14.1508 334.733 14.2317 334.529 14.2317H333.761C333.557 14.2317 333.362 14.1508 333.218 14.0068C333.074 13.8627 332.993 13.6673 332.993 13.4636V10.3912C332.993 10.1874 333.074 9.99207 333.218 9.84802C333.362 9.70397 333.557 9.62305 333.761 9.62305H334.529Z" fill="#52617A"/>
<path d="M331.072 10.7754C331.276 10.7754 331.471 10.8563 331.616 11.0004C331.76 11.1444 331.84 11.3398 331.84 11.5435V13.4638C331.84 13.6675 331.76 13.8629 331.616 14.0069C331.471 14.151 331.276 14.2319 331.072 14.2319H330.304C330.101 14.2319 329.905 14.151 329.761 14.0069C329.617 13.8629 329.536 13.6675 329.536 13.4638V11.5435C329.536 11.3398 329.617 11.1444 329.761 11.0004C329.905 10.8563 330.101 10.7754 330.304 10.7754H331.072Z" fill="#52617A"/>
<path d="M354.068 12.2555L354.239 12.3554C354.269 12.3733 354.294 12.3977 354.313 12.4268C354.332 12.4558 354.344 12.4888 354.348 12.5232C354.353 12.5576 354.349 12.5926 354.339 12.6255C354.328 12.6584 354.309 12.6885 354.285 12.7133L352.832 14.1643C352.789 14.2067 352.731 14.2305 352.67 14.2305C352.61 14.2305 352.552 14.2067 352.508 14.1643L351.063 12.7256C351.038 12.7008 351.019 12.6708 351.008 12.6377C350.997 12.6046 350.993 12.5694 350.997 12.5346C351.002 12.4999 351.014 12.4666 351.033 12.4373C351.052 12.408 351.077 12.3834 351.107 12.3654L351.276 12.2647C351.699 12.015 352.18 11.8825 352.671 11.8809C353.162 11.8793 353.644 12.0086 354.068 12.2555Z" fill="#52617A"/>
<path d="M356.033 10.3707L356.168 10.4767C356.193 10.4968 356.213 10.522 356.228 10.5505C356.242 10.5791 356.251 10.6103 356.253 10.6424C356.255 10.6744 356.25 10.7065 356.239 10.7365C356.228 10.7666 356.21 10.794 356.188 10.8169L355.318 11.6834C355.279 11.722 355.228 11.7454 355.173 11.7493C355.118 11.7532 355.064 11.7375 355.019 11.7049L354.913 11.6281C354.265 11.1478 353.48 10.8893 352.673 10.8908C351.866 10.8923 351.082 11.1538 350.435 11.6365L350.329 11.7133C350.285 11.7462 350.231 11.7623 350.176 11.7585C350.121 11.7546 350.069 11.7313 350.03 11.6926L349.163 10.8277C349.141 10.8047 349.123 10.7774 349.112 10.7473C349.101 10.7172 349.096 10.6852 349.098 10.6531C349.1 10.6211 349.108 10.5898 349.123 10.5613C349.138 10.5327 349.158 10.5076 349.183 10.4874L349.318 10.3814C350.274 9.62762 351.456 9.2168 352.673 9.21485C353.891 9.2129 355.074 9.61993 356.033 10.3707Z" fill="#52617A"/>
<path d="M357.944 8.4888L358.069 8.59557C358.093 8.61621 358.112 8.64145 358.126 8.66976C358.139 8.69807 358.147 8.72885 358.148 8.76021C358.149 8.79156 358.144 8.82284 358.133 8.85212C358.122 8.88139 358.104 8.90806 358.082 8.93047L357.217 9.79383C357.176 9.83357 357.122 9.85695 357.066 9.8595C357.009 9.86206 356.953 9.84359 356.909 9.80766L356.802 9.71779C355.644 8.75208 354.184 8.22399 352.676 8.22581C351.168 8.22764 349.709 8.75927 348.554 9.72777L348.446 9.81764C348.403 9.85368 348.347 9.87227 348.29 9.86987C348.234 9.86746 348.18 9.84421 348.139 9.80459L347.27 8.94122C347.248 8.91902 347.231 8.89252 347.219 8.86335C347.208 8.83419 347.202 8.80298 347.203 8.77162C347.204 8.74027 347.211 8.70944 347.225 8.68101C347.238 8.65259 347.257 8.62718 347.28 8.60633L347.405 8.49956C348.872 7.24377 350.74 6.55276 352.671 6.55079C354.602 6.54881 356.471 7.23602 357.941 8.4888H357.944Z" fill="#52617A"/>
<path d="M377.159 14.9986H370.912L371.557 14.2305H377.159C377.567 14.2305 377.957 14.0687 378.245 13.7806C378.534 13.4925 378.695 13.1017 378.695 12.6943V8.0856C378.695 7.67816 378.534 7.28742 378.245 6.99932C377.957 6.71122 377.567 6.54937 377.159 6.54937H373.319C373.41 6.303 373.421 6.03424 373.35 5.78125H377.159C377.77 5.78125 378.356 6.02403 378.789 6.45618C379.221 6.88833 379.464 7.47445 379.464 8.0856V12.6943C379.464 13.3054 379.221 13.8916 378.789 14.3237C378.356 14.7559 377.77 14.9986 377.159 14.9986ZM368.672 14.9986H364.101C363.49 14.9986 362.904 14.7559 362.472 14.3237C362.04 13.8916 361.797 13.3054 361.797 12.6943V8.0856C361.797 7.47445 362.04 6.88833 362.472 6.45618C362.904 6.02403 363.49 5.78125 364.101 5.78125H371.116L370.47 6.54937H364.101C363.694 6.54937 363.303 6.71122 363.015 6.99932C362.727 7.28742 362.565 7.67816 362.565 8.0856V12.6943C362.565 13.1017 362.727 13.4925 363.015 13.7806C363.303 14.0687 363.694 14.2305 364.101 14.2305H368.702C368.612 14.477 368.601 14.7456 368.671 14.9986H368.672Z" fill="#EBEBF5" fill-opacity="0.3"/>
<path d="M380.231 8.85352C380.435 8.85352 380.631 8.93444 380.775 9.07849C380.919 9.22254 381 9.41791 381 9.62163V11.1579C381 11.3616 380.919 11.557 380.775 11.701C380.631 11.8451 380.435 11.926 380.231 11.926V11.926V8.85352Z" fill="white" fill-opacity="0.6"/>
<path d="M377.159 14.9986H364.101C363.49 14.9986 362.904 14.7559 362.472 14.3237C362.04 13.8916 361.797 13.3054 361.797 12.6943V8.0856C361.797 7.47445 362.04 6.88833 362.472 6.45618C362.904 6.02403 363.49 5.78125 364.101 5.78125H377.159C377.77 5.78125 378.356 6.02403 378.789 6.45618C379.221 6.88833 379.464 7.47445 379.464 8.0856V12.6943C379.464 13.3054 379.221 13.8916 378.789 14.3237C378.356 14.7559 377.77 14.9986 377.159 14.9986ZM364.101 6.54937C363.694 6.54937 363.303 6.71122 363.015 6.99932C362.727 7.28742 362.565 7.67816 362.565 8.0856V12.6943C362.565 13.1017 362.727 13.4925 363.015 13.7806C363.303 14.0687 363.694 14.2305 364.101 14.2305H377.159C377.567 14.2305 377.957 14.0687 378.245 13.7806C378.534 13.4925 378.695 13.1017 378.695 12.6943V8.0856C378.695 7.67816 378.534 7.28742 378.245 6.99932C377.957 6.71122 377.567 6.54937 377.159 6.54937H364.101Z" fill="white" fill-opacity="0.6"/>
<path d="M377.159 7.31836H364.101C363.677 7.31836 363.333 7.66226 363.333 8.08648V12.6952C363.333 13.1194 363.677 13.4633 364.101 13.4633H377.159C377.583 13.4633 377.927 13.1194 377.927 12.6952V8.08648C377.927 7.66226 377.583 7.31836 377.159 7.31836Z" fill="#52617A"/>
<path d="M18.4944 15.2504C17.8539 15.2932 17.2198 15.1 16.7121 14.7072C16.2044 14.3144 15.8581 13.7492 15.7388 13.1185H17.1329C17.222 13.4088 17.4053 13.6611 17.6539 13.8355C17.9025 14.0099 18.2022 14.0965 18.5055 14.0815C19.6469 14.0815 20.3284 13.0126 20.3284 11.2222H20.2358C20.0459 11.5915 19.7534 11.8982 19.3936 12.1055C19.0337 12.3129 18.6217 12.412 18.2069 12.3911C17.8635 12.4011 17.5216 12.3404 17.2026 12.2127C16.8836 12.085 16.5942 11.8931 16.3526 11.6488C16.1109 11.4045 15.922 11.1132 15.7977 10.7928C15.6734 10.4725 15.6163 10.13 15.6299 9.78666C15.6229 9.41875 15.6916 9.05334 15.8318 8.71311C15.972 8.37288 16.1806 8.0651 16.4447 7.80888C17.0179 7.29284 17.7671 7.01631 18.5381 7.03629C19.0704 7.02113 19.5959 7.15864 20.0525 7.43258C20.5092 7.70652 20.8779 8.10544 21.1151 8.58221C21.5083 9.34595 21.6988 10.1978 21.6684 11.0563C21.6684 13.6822 20.4818 15.2504 18.4944 15.2504ZM18.5484 8.20295C18.3445 8.19801 18.1417 8.23444 17.9522 8.31005C17.7628 8.38566 17.5906 8.49888 17.4461 8.64288C17.3016 8.78688 17.1878 8.95866 17.1116 9.14786C17.0354 9.33706 16.9982 9.53975 17.0025 9.7437C16.9958 9.94761 17.031 10.1507 17.1062 10.3404C17.1813 10.5301 17.2946 10.7023 17.4391 10.8464C17.5836 10.9904 17.7562 11.1031 17.9462 11.1776C18.1361 11.2521 18.3394 11.2867 18.5432 11.2793C18.7467 11.2895 18.9501 11.2577 19.1407 11.1857C19.3313 11.1138 19.505 11.0034 19.651 10.8613C19.797 10.7192 19.9121 10.5485 19.9892 10.3599C20.0662 10.1713 20.1035 9.96885 20.0988 9.76518C20.1021 9.56012 20.0643 9.35648 19.9877 9.16625C19.9111 8.97601 19.7972 8.80302 19.6527 8.65745C19.5083 8.51189 19.3361 8.39669 19.1465 8.31863C18.9568 8.24058 18.7535 8.20125 18.5484 8.20295ZM23.9558 15.1741C23.7284 15.1741 23.5104 15.0837 23.3496 14.9229C23.1888 14.7621 23.0984 14.5441 23.0984 14.3167C23.0984 14.0893 23.1888 13.8712 23.3496 13.7104C23.5104 13.5496 23.7284 13.4593 23.9558 13.4593C24.0705 13.4532 24.1852 13.4711 24.2925 13.5119C24.3998 13.5527 24.4975 13.6154 24.5792 13.696C24.6609 13.7767 24.7249 13.8735 24.767 13.9803C24.8092 14.0871 24.8286 14.2016 24.824 14.3163C24.8273 14.4305 24.8071 14.5442 24.7647 14.6504C24.7222 14.7565 24.6584 14.8527 24.5772 14.9332C24.4961 15.0136 24.3992 15.0765 24.2927 15.1179C24.1862 15.1594 24.0723 15.1785 23.9581 15.1741H23.9558ZM36.6847 15.06H35.2847V8.64221H35.1929L33.2447 10.0096V8.66592L35.2921 7.23184H36.6869V15.0593L36.6847 15.06ZM31.2425 15.06H29.9047V13.6007H26.0795V12.3533C26.7321 11.1541 27.7455 9.52666 29.2699 7.23184H31.2447V12.417H32.3025V13.6022H31.2447V15.0607L31.2425 15.06ZM29.8521 8.36962C29.0003 9.62888 28.1914 10.937 27.3781 12.3696V12.4511H29.9262V8.36962H29.8521ZM23.9581 11.1059C23.8441 11.1109 23.7303 11.0925 23.6238 11.0516C23.5173 11.0108 23.4203 10.9485 23.3389 10.8686C23.2575 10.7887 23.1934 10.6929 23.1505 10.5872C23.1077 10.4815 23.0871 10.3681 23.0899 10.2541C23.0867 10.1397 23.107 10.0259 23.1496 9.91968C23.1922 9.81349 23.2563 9.71721 23.3377 9.63683C23.4191 9.55644 23.5162 9.49367 23.6229 9.45241C23.7297 9.41116 23.8437 9.39231 23.9581 9.39703C24.0727 9.39096 24.1874 9.40888 24.2947 9.44966C24.4021 9.49043 24.4997 9.55316 24.5814 9.63382C24.6631 9.71448 24.7271 9.81131 24.7692 9.91811C24.8114 10.0249 24.8308 10.1393 24.8262 10.2541C24.8291 10.3681 24.8084 10.4815 24.7656 10.5872C24.7228 10.6929 24.6586 10.7887 24.5772 10.8686C24.4958 10.9485 24.3988 11.0108 24.2923 11.0516C24.1858 11.0925 24.072 11.1109 23.9581 11.1059Z" fill="#52617A"/>
</svg>
