<svg preserveAspectRatio="none" width="100%" height="100%" overflow="visible" style="display: block;" viewBox="0 0 25 12" fill="none" xmlns="http://www.w3.org/2000/svg">
<g id="9:41">
<g id="9:41 (Background)">
</g>
<path id="9:41_2" d="M4.34604 9.69532C3.70555 9.7382 3.07153 9.54498 2.56381 9.15218C2.05609 8.75938 1.70983 8.19421 1.59049 7.56347H2.98456C3.07366 7.85378 3.25701 8.10609 3.50561 8.2805C3.7542 8.4549 4.05385 8.54144 4.35715 8.52643C5.49864 8.52643 6.18012 7.45754 6.18012 5.66717H6.08753C5.89757 6.03649 5.60514 6.34319 5.24528 6.55051C4.88542 6.75783 4.47341 6.85698 4.05864 6.83606C3.71516 6.84608 3.37329 6.78536 3.05428 6.65766C2.73527 6.52996 2.44593 6.33802 2.20424 6.09376C1.96255 5.8495 1.77368 5.55815 1.64936 5.2378C1.52505 4.91746 1.46794 4.57497 1.4816 4.23162C1.47461 3.86371 1.54334 3.49829 1.68351 3.15806C1.82367 2.81783 2.0323 2.51005 2.29641 2.25384C2.86954 1.7378 3.61879 1.46127 4.38975 1.48125C4.92205 1.46608 5.44757 1.6036 5.90423 1.87754C6.36088 2.15148 6.72959 2.5504 6.96678 3.02717C7.35996 3.79091 7.55048 4.64279 7.52012 5.50125C7.52012 8.12717 6.33345 9.69532 4.34604 9.69532ZM4.40012 2.64791C4.19619 2.64296 3.99338 2.67939 3.80392 2.75501C3.61447 2.83062 3.4423 2.94384 3.29782 3.08784C3.15333 3.23183 3.03953 3.40362 2.96329 3.59282C2.88704 3.78202 2.84993 3.98471 2.85419 4.18865C2.84745 4.39257 2.88274 4.59569 2.95785 4.78538C3.03296 4.97508 3.1463 5.14729 3.29081 5.29131C3.43532 5.43534 3.60791 5.54809 3.79786 5.62257C3.98781 5.69704 4.19104 5.73164 4.39493 5.72421C4.5984 5.73445 4.80179 5.70262 4.9924 5.6307C5.18301 5.55878 5.35673 5.44832 5.50272 5.30623C5.64871 5.16413 5.76382 4.99345 5.84087 4.80486C5.91791 4.61626 5.95523 4.4138 5.95049 4.21014C5.95376 4.00508 5.91597 3.80144 5.83937 3.61121C5.76276 3.42097 5.64887 3.24798 5.50441 3.10241C5.35995 2.95685 5.18783 2.84165 4.99818 2.76359C4.80854 2.68554 4.60519 2.64621 4.40012 2.64791V2.64791ZM9.80753 9.61902C9.58013 9.61902 9.36204 9.52869 9.20125 9.3679C9.04045 9.2071 8.95012 8.98902 8.95012 8.76162C8.95012 8.53422 9.04045 8.31613 9.20125 8.15534C9.36204 7.99454 9.58013 7.90421 9.80753 7.90421C9.92218 7.89814 10.0368 7.91606 10.1442 7.95684C10.2515 7.99761 10.3492 8.06034 10.4309 8.141C10.5126 8.22167 10.5766 8.31849 10.6187 8.4253C10.6609 8.5321 10.6803 8.64652 10.6757 8.76125C10.679 8.87549 10.6588 8.9892 10.6164 9.09532C10.5739 9.20144 10.5101 9.2977 10.4289 9.37813C10.3477 9.45857 10.2509 9.52145 10.1444 9.56289C10.0378 9.60433 9.92395 9.62344 9.80975 9.61902H9.80753ZM22.5364 9.50495H21.1364V3.08717H21.0446L19.0964 4.45458V3.11088L21.1438 1.6768H22.5386V9.50421L22.5364 9.50495ZM17.0942 9.50495H15.7564V8.04569H11.9312V6.79828C12.5838 5.59902 13.5972 3.97162 15.1216 1.6768H17.0964V6.86199H18.1542V8.04717H17.0964V9.50569L17.0942 9.50495ZM15.7038 2.81458C14.852 4.07384 14.0431 5.38199 13.2297 6.81458V6.89606H15.7779V2.81458H15.7038ZM9.80975 5.55088C9.69579 5.55589 9.58202 5.53741 9.4755 5.49659C9.36898 5.45577 9.272 5.39347 9.19058 5.31358C9.10916 5.23369 9.04504 5.13791 9.00221 5.03218C8.95938 4.92646 8.93875 4.81306 8.9416 4.69902C8.93835 4.58465 8.95867 4.47083 9.0013 4.36464C9.04392 4.25845 9.10794 4.16217 9.18937 4.08179C9.2708 4.0014 9.36789 3.93863 9.47462 3.89737C9.58135 3.85612 9.69542 3.83727 9.80975 3.84199C9.92441 3.83592 10.0391 3.85384 10.1464 3.89462C10.2537 3.93539 10.3514 3.99811 10.4331 4.07878C10.5148 4.15944 10.5788 4.25627 10.6209 4.36307C10.6631 4.46987 10.6825 4.5843 10.6779 4.69902C10.6807 4.81306 10.6601 4.92646 10.6173 5.03218C10.5745 5.13791 10.5103 5.23369 10.4289 5.31358C10.3475 5.39347 10.2505 5.45577 10.144 5.49659C10.0375 5.53741 9.92371 5.55589 9.80975 5.55088V5.55088Z" fill="var(--fill-0, #52617A)"/>
</g>
</svg>
