<svg preserveAspectRatio="none" width="100%" height="100%" overflow="visible" style="display: block;" viewBox="0 0 13 11" fill="none" xmlns="http://www.w3.org/2000/svg">
<g id="WiFi Signal / Light">
<g id="WiFi Signal / Light (Background)">
</g>
<path id="Path" d="M7.63396 7.24134L7.80448 7.3412C7.83418 7.35913 7.85945 7.38354 7.8784 7.4126C7.89735 7.44166 7.9095 7.47463 7.91393 7.50904C7.91836 7.54346 7.91496 7.57842 7.90399 7.61134C7.89302 7.64426 7.87476 7.67427 7.85056 7.69914L6.39729 9.15011C6.35418 9.19256 6.2961 9.21636 6.2356 9.21636C6.1751 9.21636 6.11702 9.19256 6.07391 9.15011L4.62832 7.71143C4.60362 7.68666 4.58488 7.65659 4.57353 7.6235C4.56218 7.59041 4.55852 7.55517 4.56281 7.52045C4.5671 7.48573 4.57925 7.45245 4.59831 7.42312C4.61738 7.3938 4.64288 7.36919 4.67287 7.35118L4.84185 7.25056C5.26437 7.00082 5.74585 6.86831 6.23665 6.86669C6.72745 6.86507 7.2098 6.9944 7.63396 7.24134V7.24134Z" fill="var(--fill-0, #52617A)"/>
<path id="Path_2" d="M9.59787 5.35786L9.73306 5.46386C9.75801 5.48403 9.77848 5.50919 9.79316 5.53772C9.80783 5.56626 9.81638 5.59755 9.81826 5.62958C9.82014 5.66161 9.81531 5.69369 9.80407 5.72374C9.79284 5.7538 9.77545 5.78118 9.75303 5.80413L8.88352 6.67057C8.84445 6.70918 8.79288 6.73256 8.73809 6.7365C8.68331 6.74044 8.62892 6.72469 8.58472 6.69208L8.47872 6.61526C7.83059 6.13503 7.04493 5.8765 6.23827 5.87803C5.43161 5.87955 4.64693 6.14104 4.00061 6.62371L3.89461 6.70052C3.85044 6.73345 3.79594 6.74945 3.74098 6.74565C3.68603 6.74184 3.63425 6.71848 3.59504 6.67979L2.72861 5.81489C2.70618 5.79194 2.6888 5.76456 2.67756 5.7345C2.66633 5.70444 2.6615 5.67237 2.66338 5.64034C2.66526 5.6083 2.67381 5.57702 2.68848 5.54848C2.70315 5.51994 2.72362 5.49478 2.74858 5.47461L2.883 5.36861C3.83925 4.61482 5.02095 4.204 6.23857 4.20205C7.4562 4.2001 8.63921 4.60713 9.59787 5.35786Z" fill="var(--fill-0, #52617A)"/>
<path id="Path_3" d="M11.5095 3.47454L11.6347 3.58131C11.6583 3.60194 11.6775 3.62719 11.6911 3.6555C11.7046 3.68381 11.7122 3.71458 11.7134 3.74594C11.7147 3.7773 11.7095 3.80857 11.6982 3.83785C11.6869 3.86713 11.6697 3.89379 11.6478 3.91621L10.7821 4.77957C10.7416 4.8193 10.6878 4.84269 10.6311 4.84524C10.5744 4.84779 10.5188 4.82933 10.4748 4.79339L10.3673 4.70352C9.20951 3.73782 7.74915 3.20972 6.24148 3.21155C4.73381 3.21337 3.27473 3.745 2.11928 4.71351L2.01174 4.80338C1.96791 4.83941 1.91232 4.85801 1.85562 4.8556C1.79893 4.85319 1.74511 4.82995 1.70449 4.79032L0.835755 3.92696C0.813603 3.90475 0.796219 3.87825 0.784666 3.84909C0.773114 3.81993 0.767638 3.78871 0.768573 3.75736C0.769508 3.726 0.776834 3.69517 0.790103 3.66675C0.803372 3.63832 0.822305 3.61291 0.845741 3.59206L0.970175 3.48529C2.43759 2.22951 4.30492 1.53849 6.23631 1.53652C8.16771 1.53455 10.0364 2.22175 11.5064 3.47454H11.5095Z" fill="var(--fill-0, #52617A)"/>
</g>
</svg>
